<?xml version="1.0" standalone="no"?>
<!DOCTYPE svg PUBLIC "-//W3C//DTD SVG 20010904//EN"
 "http://www.w3.org/TR/2001/REC-SVG-20010904/DTD/svg10.dtd">
<svg version="1.0" xmlns="http://www.w3.org/2000/svg"
 width="225.000000pt" height="225.000000pt" viewBox="0 0 225.000000 225.000000"
 preserveAspectRatio="xMidYMid meet">
<metadata>
Created by potrace 1.15, written by Peter Selinger 2001-2017
</metadata>
<g transform="translate(0.000000,225.000000) scale(0.100000,-0.100000)"
fill="#000000" stroke="none">
<path d="M0 1125 l0 -1125 1125 0 1125 0 0 1125 0 1125 -1125 0 -1125 0 0
-1125z m2041 1054 c50 -16 105 -61 132 -112 l22 -42 3 -884 c3 -987 5 -945
-66 -1013 -82 -79 -3 -73 -977 -76 -588 -2 -886 1 -921 8 -69 15 -127 59 -158
122 l-26 52 0 879 c0 639 3 890 12 918 15 52 73 117 122 140 39 18 88 19 930
19 637 0 899 -3 927 -11z"/>
<path d="M1050 1795 c-14 -8 -35 -14 -48 -15 -13 0 -36 -7 -53 -15 -21 -12
-34 -13 -48 -5 -30 15 -47 12 -79 -15 -22 -18 -42 -25 -74 -25 -24 0 -59 -8
-78 -19 -45 -24 -83 -94 -75 -137 5 -28 2 -33 -20 -38 -13 -3 -32 -17 -41 -31
-10 -15 -26 -25 -41 -25 -35 0 -83 -51 -83 -88 0 -25 -7 -34 -37 -49 -100 -52
-110 -183 -19 -243 26 -17 29 -24 30 -72 1 -62 21 -99 69 -128 38 -23 97 -27
97 -6 0 8 -16 16 -39 20 -57 9 -94 56 -89 110 3 23 6 47 9 55 2 9 -9 21 -30
31 -48 24 -71 58 -71 107 0 53 36 100 86 109 34 6 35 7 29 44 -6 33 -3 40 22
59 16 14 37 21 50 18 17 -3 27 4 42 29 15 25 27 33 53 36 24 2 32 7 29 18 -30
109 27 179 135 166 49 -6 52 -4 58 18 8 34 35 41 62 15 l23 -22 31 27 c19 16
44 26 63 26 18 0 41 7 51 15 25 19 70 19 90 0 8 -8 30 -15 50 -15 23 0 45 -9
66 -26 l31 -27 20 22 c11 11 24 21 29 21 14 0 40 -30 40 -46 0 -11 11 -13 53
-8 110 13 166 -56 136 -166 -3 -11 5 -16 29 -18 26 -3 38 -11 53 -36 15 -26
24 -32 44 -29 38 8 76 -36 68 -80 -5 -33 -4 -35 30 -41 52 -10 87 -55 87 -113
0 -37 -5 -50 -31 -74 -17 -16 -39 -29 -49 -29 -21 0 -32 -21 -19 -41 5 -8 9
-31 9 -51 0 -51 -39 -96 -91 -104 -49 -8 -54 -34 -5 -34 74 0 142 80 132 157
-5 39 -3 43 28 63 45 27 70 81 63 133 -7 50 -32 85 -80 110 -30 15 -37 25 -37
49 0 37 -48 88 -83 88 -15 0 -31 10 -41 25 -9 14 -27 27 -40 31 -21 5 -24 12
-24 49 0 83 -52 136 -141 143 -40 3 -64 12 -84 28 -31 26 -48 29 -78 14 -14
-8 -27 -7 -48 5 -17 8 -43 15 -58 15 -15 0 -37 7 -47 15 -25 19 -83 19 -116 0z"/>
<path d="M775 1530 c-36 -14 -44 -34 -56 -148 -7 -62 -16 -112 -20 -112 -4 0
-5 8 -2 18 7 27 -20 44 -64 40 -34 -3 -38 -6 -41 -32 -4 -35 10 -46 61 -46 45
0 48 -13 7 -30 -17 -7 -45 -26 -61 -41 l-31 -28 7 -128 c6 -109 10 -131 28
-150 11 -13 26 -23 34 -23 9 0 13 -14 13 -45 0 -58 25 -85 79 -85 59 0 91 30
91 86 l0 44 290 0 290 0 0 -43 c0 -57 30 -87 86 -87 54 0 84 31 84 86 0 32 5
42 29 55 34 20 38 39 40 189 2 118 2 119 -84 171 l-40 24 45 5 c54 7 70 15 70
39 0 28 -25 43 -67 39 -33 -3 -39 -7 -43 -33 -9 -48 -17 -17 -25 90 -7 90 -10
102 -36 127 l-27 28 -319 -1 c-175 0 -327 -4 -338 -9z m663 -42 c36 -36 22
-38 -333 -38 -190 0 -345 3 -345 6 0 3 5 14 10 25 10 18 25 19 333 19 238 0
326 -3 335 -12z m16 -75 c2 -10 8 -53 12 -95 l6 -78 -36 0 c-36 0 -36 0 -36
43 0 24 -5 48 -12 55 -7 7 -43 12 -93 12 -50 0 -86 -5 -93 -12 -7 -7 -12 -31
-12 -55 l0 -43 -90 0 -90 0 0 43 c0 24 -5 48 -12 55 -7 7 -43 12 -93 12 -50 0
-86 -5 -93 -12 -7 -7 -12 -31 -12 -55 0 -41 -1 -43 -30 -43 l-31 0 6 53 c3 28
8 71 11 95 l5 42 344 0 c319 0 344 -1 349 -17z m-76 -130 l3 -43 -85 0 -86 0
0 38 c0 21 3 42 7 46 4 4 41 5 83 4 l75 -3 3 -42z m158 -94 c30 -17 58 -38 63
-47 12 -21 2 -233 -12 -249 -7 -9 -46 -13 -133 -13 -113 0 -124 2 -124 18 0
39 -17 42 -221 42 -166 0 -200 -2 -213 -16 -9 -8 -16 -22 -16 -30 0 -11 -23
-14 -124 -14 -73 0 -127 4 -131 10 -3 6 -9 66 -12 133 l-6 124 59 36 59 36
379 1 379 0 53 -31z m-228 -291 c3 -17 -12 -18 -202 -18 -113 0 -206 2 -206 4
0 2 3 12 6 20 6 14 30 16 203 14 177 -3 196 -5 199 -20z"/>
<path d="M703 1100 c-12 -5 -30 -21 -39 -35 -16 -24 -16 -29 -1 -60 28 -59
115 -58 138 2 11 30 5 54 -19 75 -24 22 -53 28 -79 18z"/>
<path d="M1450 1097 c-74 -37 -44 -137 41 -137 27 0 69 44 69 73 0 23 -32 67
-50 67 -4 0 -14 2 -22 5 -7 3 -24 -1 -38 -8z"/>
<path d="M975 1095 c-5 -2 -29 -9 -52 -15 -38 -10 -43 -14 -43 -40 l0 -30 225
0 225 0 0 30 c0 25 -5 31 -37 41 -37 11 -298 23 -318 14z"/>
<path d="M1080 540 c0 -100 3 -120 15 -120 12 0 15 15 15 71 0 38 4 68 9 65 5
-3 15 -35 22 -71 7 -38 18 -65 25 -65 7 0 17 28 25 70 7 39 16 70 21 70 4 0 8
-31 8 -70 0 -56 3 -70 15 -70 13 0 15 20 15 120 0 120 0 120 -24 120 -21 0
-25 -6 -36 -67 -6 -38 -14 -77 -17 -88 -6 -20 -6 -20 -13 0 -4 11 -13 50 -20
88 -11 60 -15 67 -36 67 -24 0 -24 0 -24 -120z"/>
<path d="M1300 640 c-17 -17 -20 -33 -20 -100 0 -67 3 -83 20 -100 24 -24 38
-25 68 -4 20 14 22 24 22 103 0 72 -3 91 -18 104 -25 22 -48 21 -72 -3z"/>
<path d="M1430 540 l0 -120 36 0 c19 0 44 4 54 10 25 14 33 56 17 90 -9 17
-11 33 -6 41 15 23 10 65 -9 82 -10 10 -35 17 -55 17 l-37 0 0 -120z"/>
</g>
</svg>
