<?xml version="1.0" standalone="no"?>
<!DOCTYPE svg PUBLIC "-//W3C//DTD SVG 20010904//EN"
 "http://www.w3.org/TR/2001/REC-SVG-20010904/DTD/svg10.dtd">
<svg version="1.0" xmlns="http://www.w3.org/2000/svg"
 width="190.000000pt" height="265.000000pt" viewBox="0 0 190.000000 265.000000"
 preserveAspectRatio="xMidYMid meet">
<metadata>
Created by potrace 1.15, written by Peter Selinger 2001-2017
</metadata>
<g transform="translate(0.000000,265.000000) scale(0.100000,-0.100000)"
fill="#000000" stroke="none">
<path d="M679 2620 c-9 -5 -20 -21 -23 -34 -4 -16 -35 -45 -88 -82 -161 -113
-190 -152 -152 -209 11 -17 14 -36 9 -68 -5 -30 -2 -55 9 -81 15 -35 14 -39
-5 -65 -29 -39 -28 -128 1 -175 25 -42 66 -76 90 -76 35 0 36 -140 2 -166 -10
-7 -15 -26 -14 -53 2 -45 12 -36 -119 -111 -34 -19 -81 -52 -104 -72 -23 -20
-55 -40 -71 -44 -42 -10 -68 -38 -98 -104 -45 -99 -66 -204 -75 -372 -5 -86
-14 -166 -20 -177 -9 -16 -8 -27 2 -48 8 -16 12 -42 10 -60 -4 -27 1 -38 28
-65 18 -18 48 -66 65 -106 36 -81 73 -134 111 -159 33 -22 115 -21 148 1 24
16 29 15 90 -3 35 -11 100 -27 143 -35 78 -15 80 -16 143 -81 115 -120 239
-162 444 -151 141 7 203 20 291 62 167 79 292 288 324 541 6 48 16 97 22 108
16 29 41 171 41 237 0 67 -21 106 -63 114 -24 5 -31 15 -50 68 -68 189 -195
347 -330 413 -66 32 -177 53 -282 53 -27 0 -48 4 -48 9 0 5 6 27 14 49 23 65
28 140 17 262 -9 102 -8 121 8 170 11 33 20 49 24 40 3 -10 6 -6 7 10 2 25 2
25 15 -5 l14 -30 1 33 0 32 69 0 c50 0 74 4 85 16 38 37 6 111 -72 171 -34 26
-53 33 -87 33 l-44 0 -17 59 c-18 66 -50 103 -104 120 -109 33 -325 52 -361
31z m383 -69 c42 -20 49 -28 66 -80 l20 -59 -106 -11 c-111 -13 -151 -28 -235
-88 -27 -19 -51 -32 -53 -30 -3 2 -5 41 -5 86 -1 102 26 166 81 194 49 25 169
19 232 -12z m-214 -312 c78 -18 97 -20 117 -9 13 7 31 10 39 7 20 -8 21 -47 1
-47 -18 0 -19 -14 -4 -41 6 -12 15 -17 22 -12 18 11 59 3 80 -14 20 -19 23 -5
4 20 -12 18 -11 107 2 107 13 0 29 -78 24 -118 -5 -35 -9 -42 -22 -36 -55 23
-93 16 -109 -21 -19 -41 0 -65 49 -65 l41 0 -4 40 c-3 39 4 51 18 29 4 -7 9
-84 12 -172 3 -133 1 -170 -13 -217 l-17 -57 -81 -12 c-44 -6 -105 -22 -135
-36 -30 -14 -59 -25 -64 -25 -6 0 -44 33 -86 73 -87 84 -85 69 6 -28 34 -37
62 -68 62 -71 0 -2 -9 -8 -19 -14 -16 -8 -37 0 -115 47 l-96 58 0 106 0 107
-35 6 c-26 5 -44 18 -65 47 -36 51 -44 86 -30 138 11 43 33 61 74 61 38 0 54
-25 62 -91 6 -54 9 -60 28 -57 19 3 21 9 21 66 0 53 3 65 20 74 41 24 73 66
91 121 10 31 20 57 23 57 3 0 48 -10 99 -21z m599 -895 c66 -32 132 -106 177
-199 47 -95 65 -171 73 -295 21 -372 -195 -631 -431 -516 -109 53 -218 219
-222 339 -1 31 -1 57 1 57 2 0 11 -25 20 -55 l16 -56 27 20 c49 35 151 145
162 174 8 23 6 37 -8 70 -19 43 -157 217 -172 217 -17 0 -42 -99 -47 -192 -3
-54 -9 -98 -12 -98 -4 0 -5 15 -3 34 2 18 -1 37 -7 40 -15 10 -14 54 5 143 29
142 99 261 179 309 87 50 151 53 242 8z m-614 -258 c3 -7 1 -33 -4 -57 -6 -23
-9 -53 -7 -65 l3 -23 55 20 c83 31 104 30 108 -5 4 -34 -30 -74 -96 -113 -24
-14 -41 -27 -38 -30 5 -6 85 34 108 54 24 22 48 9 48 -25 0 -28 -26 -60 -80
-95 -13 -10 -21 -17 -17 -17 13 0 85 39 92 50 12 19 25 10 25 -17 -1 -33 -19
-59 -57 -85 -19 -12 -23 -18 -12 -18 9 0 28 9 43 21 41 32 30 5 -14 -35 -55
-49 -94 -56 -191 -31 -23 6 -40 -5 -130 -83 -142 -122 -294 -230 -334 -238
-47 -9 -101 12 -130 50 -34 44 -98 185 -91 201 7 20 84 61 146 79 l55 16 -25
-21 c-31 -26 -27 -24 145 51 215 94 231 105 244 154 16 64 120 276 135 276 8
0 16 -6 19 -14z"/>
<path d="M1300 1311 c-19 -4 -46 -13 -60 -20 -29 -16 -110 -91 -110 -104 0 -4
28 -40 63 -80 34 -40 73 -89 86 -109 43 -71 80 -40 125 102 31 98 41 172 26
199 -11 22 -56 26 -130 12z"/>
<path d="M1492 1170 c-7 -45 -24 -112 -37 -148 -13 -37 -22 -68 -20 -70 2 -2
12 19 22 47 10 28 21 51 24 51 9 0 34 -64 44 -109 5 -22 3 -36 -5 -41 -6 -4
21 -10 60 -14 47 -5 76 -4 83 3 15 15 -16 139 -54 216 -16 33 -46 80 -67 104
l-37 43 -13 -82z"/>
<path d="M1455 738 c-2 -13 -1 -39 4 -58 5 -19 9 -29 10 -22 1 6 10 12 22 12
18 0 20 -4 14 -27 -9 -39 -25 -53 -25 -23 0 13 -3 21 -6 18 -7 -7 26 -220 36
-231 13 -15 98 93 120 151 23 60 47 169 39 176 -7 7 -130 26 -171 26 -31 0
-39 -4 -43 -22z"/>
<path d="M1233 609 c-48 -50 -90 -95 -91 -100 -6 -17 68 -98 114 -125 31 -18
60 -27 97 -28 48 -1 52 1 55 23 6 38 -29 263 -44 294 -8 15 -21 27 -29 27 -8
0 -54 -41 -102 -91z m81 -35 c61 -98 56 -144 -15 -144 -50 0 -57 7 -51 55 2
25 -1 58 -8 75 -11 26 -10 33 5 50 10 11 22 20 26 20 4 0 23 -25 43 -56z"/>
</g>
</svg>
