<?xml version="1.0" standalone="no"?>
<!DOCTYPE svg PUBLIC "-//W3C//DTD SVG 20010904//EN"
 "http://www.w3.org/TR/2001/REC-SVG-20010904/DTD/svg10.dtd">
<svg version="1.0" xmlns="http://www.w3.org/2000/svg"
 width="216.000000pt" height="233.000000pt" viewBox="0 0 216.000000 233.000000"
 preserveAspectRatio="xMidYMid meet">
<metadata>
Created by potrace 1.15, written by Peter Selinger 2001-2017
</metadata>
<g transform="translate(0.000000,233.000000) scale(0.100000,-0.100000)"
fill="#000000" stroke="none">
<path d="M975 1979 c-272 -40 -502 -231 -590 -489 -90 -265 -27 -543 170 -749
l80 -83 5 357 5 357 30 24 c17 14 35 28 40 32 6 5 21 23 36 42 l25 33 25 -24
c31 -30 64 -49 84 -49 9 0 86 45 173 100 86 55 165 100 175 100 23 0 379 -273
391 -300 7 -15 -2 -33 -44 -87 -29 -38 -109 -141 -178 -230 -84 -110 -131
-163 -144 -163 -24 0 -60 19 -71 36 -4 8 -12 14 -17 14 -9 0 -18 7 -71 55 -9
8 -19 15 -22 15 -6 0 -16 8 -68 55 -9 8 -19 15 -22 15 -4 0 -15 8 -25 18 -10
9 -29 24 -42 32 -13 8 -30 23 -39 33 -8 9 -20 17 -26 17 -6 0 -18 8 -27 18
-10 9 -29 28 -43 42 -19 18 -25 35 -25 65 0 34 -6 45 -37 72 -33 29 -38 31
-44 15 -3 -9 -9 -173 -12 -363 l-7 -347 68 -35 c129 -68 190 -82 352 -82 125
0 155 3 215 23 116 39 204 91 288 171 213 203 286 495 192 771 -90 263 -319
450 -601 490 -85 11 -114 11 -199 -1z"/>
<path d="M1203 1509 c-18 -12 -33 -26 -33 -33 0 -15 255 -216 274 -216 22 0
58 47 54 71 -3 26 -218 199 -246 199 -9 0 -32 -10 -49 -21z"/>
<path d="M1114 1193 c32 -91 51 -113 97 -113 26 0 69 43 69 69 0 11 -10 32
-23 46 -19 23 -33 28 -90 32 l-67 6 14 -40z"/>
<path d="M0 85 l0 -85 1080 0 1080 0 0 85 0 85 -1080 0 -1080 0 0 -85z"/>
</g>
</svg>
