<?xml version="1.0" standalone="no"?>
<!DOCTYPE svg PUBLIC "-//W3C//DTD SVG 20010904//EN"
 "http://www.w3.org/TR/2001/REC-SVG-20010904/DTD/svg10.dtd">
<svg version="1.0" xmlns="http://www.w3.org/2000/svg"
 width="566.000000pt" height="503.000000pt" viewBox="0 0 566.000000 503.000000"
 preserveAspectRatio="xMidYMid meet">
<metadata>
Created by potrace 1.15, written by Peter Selinger 2001-2017
</metadata>
<g transform="translate(0.000000,503.000000) scale(0.100000,-0.100000)"
fill="#000000" stroke="none">
<path d="M1601 5009 c-269 -24 -407 -61 -583 -158 -152 -84 -208 -129 -279
-230 l-66 -94 -21 -136 c-12 -75 -24 -199 -28 -276 -6 -131 -4 -147 21 -245
32 -127 106 -282 174 -367 28 -34 85 -86 128 -116 43 -31 88 -66 101 -78 l23
-23 -29 -23 c-16 -12 -39 -45 -51 -73 -12 -27 -26 -50 -32 -50 -24 0 -180 -80
-235 -120 -33 -24 -107 -91 -165 -149 -114 -114 -168 -198 -237 -369 l-34 -83
17 -81 c9 -45 27 -103 41 -129 13 -27 24 -53 24 -58 0 -5 -16 -19 -36 -30 -44
-26 -43 -38 13 -167 31 -72 48 -96 108 -153 69 -65 71 -68 67 -109 -5 -50 -11
-54 -171 -114 -116 -42 -184 -95 -196 -150 -4 -15 -10 -28 -14 -28 -14 0 -74
-133 -98 -220 -17 -60 -26 -121 -30 -206 l-6 -122 50 -103 c38 -79 66 -122
118 -177 92 -98 161 -133 312 -156 l112 -17 57 33 c32 17 53 33 48 34 -5 2
-61 10 -124 18 -109 14 -120 17 -208 68 -76 43 -103 65 -139 113 -62 81 -89
145 -104 240 -15 104 6 239 55 353 l34 77 119 60 c65 33 134 70 152 82 34 22
35 22 48 3 8 -11 25 -20 37 -20 13 0 40 -7 59 -15 48 -20 126 -19 156 1 13 10
44 19 70 21 62 4 71 9 71 32 0 22 38 38 64 28 15 -6 36 -108 36 -173 0 -21
-11 -78 -24 -125 -21 -74 -25 -119 -31 -324 l-8 -238 -34 -38 c-35 -38 -35
-40 -31 -113 3 -65 7 -79 30 -103 14 -15 50 -80 78 -143 50 -111 54 -117 118
-165 37 -27 94 -61 127 -74 55 -23 72 -26 207 -25 l148 0 35 34 c43 42 41 57
-16 141 -22 33 -39 70 -39 86 0 15 21 102 47 192 26 91 42 166 37 168 -5 2
-25 11 -44 21 -30 14 -35 22 -32 47 5 58 47 205 58 205 32 0 54 -39 78 -138
32 -133 65 -180 153 -218 59 -25 67 -26 177 -20 123 8 241 39 319 86 44 26 40
32 -40 56 -57 17 -113 69 -113 106 0 46 22 155 37 185 23 47 12 63 -42 63
l-45 0 0 78 c0 50 11 132 31 223 26 123 32 179 40 384 6 132 8 277 6 321 -5
95 -12 87 118 130 113 36 135 32 292 -61 108 -63 138 -76 159 -71 26 7 26 6
19 -31 -4 -21 -8 -41 -10 -44 -11 -16 -85 -60 -94 -55 -5 4 -12 2 -16 -4 -10
-16 43 -36 57 -22 7 7 18 12 26 12 8 0 31 14 52 30 42 33 93 40 125 16 17 -12
18 -18 7 -55 -7 -23 -24 -48 -37 -57 -14 -9 -25 -21 -25 -27 0 -15 48 -56 74
-63 39 -9 68 -48 72 -96 6 -59 -21 -90 -84 -98 -46 -5 -47 -6 -44 -38 1 -18
-3 -42 -8 -52 -19 -35 -77 -20 -93 24 -6 15 -10 16 -22 6 -8 -6 -23 -9 -35 -5
-22 7 -26 35 -9 67 15 29 2 35 -32 15 -17 -9 -51 -17 -75 -17 -37 0 -50 5 -75
31 -26 27 -30 37 -26 66 5 30 30 69 72 114 18 19 11 46 -16 54 -10 4 -19 15
-19 25 0 20 44 60 66 60 8 0 14 5 14 11 0 18 -71 3 -94 -20 -18 -18 -19 -26
-10 -71 9 -44 8 -55 -13 -96 -14 -28 -23 -63 -23 -93 0 -39 5 -52 30 -76 25
-24 41 -30 90 -33 44 -3 60 -8 60 -19 0 -8 13 -20 29 -26 29 -11 66 -70 86
-137 18 -59 78 -163 131 -225 62 -73 190 -165 230 -165 12 0 26 -5 30 -11 7
-12 133 -7 195 7 26 6 26 6 22 -48 -3 -29 -13 -85 -24 -124 -10 -38 -19 -73
-19 -76 0 -11 54 -41 87 -49 34 -7 35 -6 61 47 l27 55 -24 65 c-13 36 -21 67
-19 70 3 2 41 -20 85 -50 104 -71 158 -87 262 -77 54 6 91 15 116 31 37 23 37
23 31 2 -4 -12 0 -65 9 -119 15 -85 24 -109 68 -183 89 -149 194 -234 370
-300 106 -40 110 -41 250 -43 180 -2 268 20 357 88 32 25 63 45 68 45 19 0 91
89 122 149 16 34 37 86 45 116 7 30 17 60 20 65 3 5 10 49 16 97 12 103 -7
252 -46 362 -12 37 -23 89 -23 118 0 43 -7 65 -41 123 -43 76 -47 96 -31 178
25 132 32 246 31 494 -1 222 -5 283 -21 357 -28 131 -64 192 -142 240 -21 12
-38 26 -38 29 0 4 9 21 20 37 20 31 28 95 11 95 -5 0 -16 3 -25 6 -21 8 -21
-14 -1 -36 14 -16 14 -21 -5 -53 -24 -41 -41 -47 -131 -47 -88 0 -124 14 -150
58 -13 21 -24 39 -25 40 -1 2 -15 -6 -31 -18 l-29 -21 -54 27 c-47 23 -59 26
-109 19 -106 -15 -152 -2 -182 50 -22 38 -24 94 -4 101 29 11 18 68 -20 107
-95 98 24 210 162 152 19 -8 49 -15 65 -15 29 0 30 1 23 41 -6 33 -3 47 19 80
32 48 70 53 106 14 32 -34 47 -32 91 15 35 37 50 43 104 43 6 0 33 -2 60 -6
39 -5 45 -4 25 4 -95 39 -172 27 -206 -30 -10 -17 -22 -31 -27 -31 -5 0 -24
12 -43 27 -38 28 -83 34 -108 14 -9 -7 -21 -40 -28 -72 -6 -32 -18 -61 -26
-64 -8 -3 -32 0 -54 7 -50 15 -143 -2 -203 -37 -22 -13 -62 -29 -90 -36 -38
-10 -62 -25 -101 -64 l-51 -52 -184 -5 c-106 -3 -194 -10 -206 -16 -11 -6 -26
-25 -33 -42 -10 -23 -19 -30 -40 -30 -16 0 -35 -2 -43 -6 -8 -3 -25 4 -38 15
-65 56 -157 105 -219 117 -36 6 -67 10 -69 8 -2 -2 -17 19 -33 46 l-28 50 -55
0 c-97 0 -361 -47 -278 -49 12 -1 50 5 85 13 35 8 97 17 139 20 l76 5 30 -43
c17 -25 29 -47 26 -50 -12 -12 -57 -6 -75 10 -20 19 -139 21 -185 3 -15 -6
-37 -8 -49 -5 -13 4 -25 3 -27 -1 -7 -13 29 -144 52 -190 26 -52 26 -52 0 -46
-23 6 -89 131 -89 168 0 12 -7 30 -15 41 -15 18 -16 17 -10 -13 5 -24 -3 -55
-29 -121 -43 -108 -46 -152 -10 -199 19 -25 24 -41 20 -59 l-7 -25 23 20 c27
26 44 26 103 0 81 -36 135 -73 135 -92 0 -36 -74 -162 -90 -152 -4 3 0 22 10
43 19 37 19 37 -2 55 -11 9 -26 17 -33 17 -7 0 -32 18 -56 40 -24 22 -50 40
-56 40 -15 0 -17 -36 -3 -45 17 -11 11 -31 -12 -44 -13 -6 -36 -20 -53 -30
-16 -11 -40 -20 -53 -20 -22 -1 -22 0 -7 35 19 45 19 43 -4 37 -11 -3 -21 2
-24 11 -8 21 -33 21 -41 0 -3 -9 -6 -35 -6 -59 0 -52 -2 -53 -116 -90 -79 -25
-120 -30 -161 -19 l-22 6 29 52 c51 91 110 263 110 321 0 14 4 25 9 25 5 0 33
-19 62 -43 30 -24 76 -56 102 -71 26 -15 63 -41 81 -57 42 -36 66 -38 66 -5 0
16 -7 27 -20 31 -25 8 -193 118 -246 161 -48 39 -51 40 -84 14 -14 -11 -31
-20 -38 -20 -8 0 -69 35 -135 77 -67 42 -149 93 -183 114 -111 68 -249 160
-252 169 -2 4 21 13 50 20 142 32 247 72 344 129 56 33 113 74 127 91 14 16
54 42 89 57 61 26 138 86 138 108 0 14 -47 58 -77 74 l-23 12 32 62 c22 43 44
122 75 262 38 169 45 219 46 320 1 66 -2 148 -7 183 l-9 62 49 0 c81 0 118
-15 148 -60 31 -47 52 -51 67 -12 16 41 5 107 -25 147 l-27 35 29 0 c28 0 27
2 -40 70 -76 79 -213 173 -328 227 -196 91 -339 133 -540 158 -135 16 -148 16
-289 4z m269 -44 c123 -8 207 -26 345 -74 174 -60 350 -152 426 -221 l44 -40
-32 5 c-18 3 -33 1 -33 -3 0 -5 33 -38 74 -75 101 -91 135 -173 45 -111 -59
40 -153 47 -192 13 -27 -24 -27 -24 -16 -99 15 -103 23 -210 15 -210 -4 0 -23
7 -43 15 -43 18 -43 18 -43 2 0 -8 12 -24 26 -38 14 -13 30 -32 35 -41 10 -18
-33 -241 -57 -295 -8 -17 -15 -37 -16 -45 0 -7 -4 10 -7 37 -5 44 -9 50 -31
52 -19 2 -33 -8 -62 -46 -21 -27 -38 -54 -38 -61 0 -17 42 -2 59 21 22 31 34
23 27 -18 -3 -25 0 -53 11 -82 26 -69 15 -77 -99 -73 -60 3 -98 0 -102 -7 -11
-17 30 -31 95 -31 65 0 172 -38 183 -66 3 -7 -12 -28 -35 -47 -45 -39 -95 -51
-170 -41 -41 5 -49 4 -49 -9 0 -9 9 -19 20 -22 11 -3 20 -10 20 -14 0 -11 -50
-61 -61 -61 -4 0 -15 -7 -24 -16 -28 -29 -184 -104 -248 -120 -126 -31 -144
-35 -230 -44 -48 -5 -92 -12 -97 -15 -10 -6 -33 16 -70 69 -17 25 -37 39 -65
47 -49 14 -114 33 -180 54 -27 9 -77 19 -110 22 -73 8 -131 42 -232 139 -68
66 -143 162 -143 184 0 5 -5 10 -10 10 -6 0 -15 12 -20 28 -6 15 -15 36 -20
47 -84 181 -106 420 -60 660 30 155 75 250 163 339 92 94 293 218 373 231 21
3 75 13 119 21 103 20 328 42 380 38 22 -2 83 -6 135 -9z m-650 -1749 c41 -7
116 -25 165 -41 50 -15 96 -29 103 -31 6 -2 12 -10 12 -17 0 -25 38 -102 64
-130 14 -16 36 -27 50 -27 65 0 131 -38 219 -129 80 -82 92 -100 153 -228 36
-76 92 -193 125 -259 32 -67 59 -124 59 -128 0 -3 -8 -6 -19 -6 -10 0 -35 -7
-55 -15 -19 -8 -39 -14 -43 -13 -5 0 -17 -2 -28 -7 -49 -19 -173 -64 -210 -75
-22 -7 -50 -16 -63 -21 -13 -5 -39 -9 -58 -9 -19 0 -33 -4 -30 -9 6 -9 -36
-31 -60 -31 -8 0 -25 -7 -37 -15 -25 -16 -143 -55 -168 -55 -9 0 -22 -6 -28
-14 -11 -13 -103 -33 -125 -27 -5 1 -16 -4 -25 -12 -30 -25 -100 -55 -104 -43
-7 21 6 56 22 57 14 1 13 2 -1 6 -10 2 -19 8 -19 11 -1 4 -3 22 -5 40 -2 18
-8 41 -13 50 -5 10 -15 47 -21 82 -6 36 -18 85 -25 110 -8 25 -16 71 -18 103
l-5 57 32 1 c17 0 57 1 88 2 81 3 93 20 33 46 -26 12 -53 21 -59 22 -6 0 9 8
33 17 35 14 45 23 48 45 3 23 0 27 -22 27 -42 0 -146 -58 -200 -111 -98 -97
-105 -104 -105 -115 0 -18 -48 -57 -60 -49 -19 11 -100 16 -100 6 0 -16 -93
-40 -205 -54 -11 -2 -40 -13 -63 -26 -48 -24 -72 -22 -72 7 0 10 -6 24 -12 30
-9 9 -13 46 -13 110 0 89 3 104 36 183 44 105 118 206 236 322 90 89 238 202
303 233 19 9 50 30 68 47 27 27 35 30 50 19 33 -23 97 -51 167 -71 81 -24 82
-25 198 -81 79 -38 117 -45 117 -22 0 17 -45 59 -77 72 -34 13 -45 40 -16 40
9 0 13 3 10 6 -4 4 -20 1 -38 -6 -20 -9 -33 -10 -37 -3 -4 6 -18 14 -31 18
l-24 7 24 14 c22 13 19 14 -36 8 -45 -4 -68 -2 -90 10 -16 9 -46 16 -66 16
-89 0 -118 19 -83 54 19 19 55 20 154 2z m3078 -384 c-3 -73 -1 -81 25 -115
51 -67 91 -76 230 -51 29 5 42 2 57 -11 27 -24 25 -44 -4 -55 -13 -4 -32 -20
-44 -34 -11 -14 -25 -26 -31 -26 -6 0 -2 -9 9 -20 18 -18 22 -18 61 -5 23 8
45 13 49 10 4 -3 47 2 96 10 48 9 93 14 99 11 6 -2 17 -29 24 -60 13 -59 6
-86 -25 -86 -19 0 -28 -20 -15 -33 32 -32 -10 -93 -59 -85 -17 2 -27 -8 -48
-52 -24 -49 -31 -55 -61 -58 -45 -5 -77 13 -92 52 -7 17 -13 32 -15 34 -1 2
-12 -3 -23 -10 -17 -10 -24 -10 -39 0 -9 7 -31 19 -49 27 -17 8 -34 23 -38 34
-7 22 -45 59 -45 43 0 -6 8 -27 17 -47 22 -47 9 -62 -44 -49 -27 6 -40 16 -47
35 -11 33 -1 75 24 96 19 17 19 17 -1 40 -12 12 -19 29 -16 37 7 17 -20 36
-50 36 -25 0 -73 51 -73 77 0 12 16 36 39 55 36 31 38 36 36 85 -1 49 -5 56
-48 96 -49 45 -61 82 -29 90 9 3 43 5 75 6 l57 1 -2 -78z m-1034 -29 c6 -14
21 -15 126 -10 82 4 120 3 120 -5 0 -6 -9 -8 -19 -5 -17 4 -20 -1 -23 -36 -4
-55 -29 -61 -46 -13 -9 23 -18 33 -27 30 -19 -8 -29 -44 -16 -57 24 -24 11
-37 -38 -37 -28 0 -53 -4 -56 -10 -12 -19 -22 -10 -48 43 -26 50 -34 96 -20
110 12 13 41 7 47 -10z m-1154 -54 c0 -5 7 -9 15 -9 17 0 191 -82 217 -102 16
-11 16 -17 4 -48 -24 -64 -46 -109 -56 -115 -14 -9 -116 22 -141 43 -44 36
-66 85 -73 163 -3 41 -4 78 0 81 8 9 34 -2 34 -13z m1584 -26 c8 -19 -9 -33
-41 -33 -12 0 -32 -4 -45 -9 -13 -5 -55 -19 -95 -31 -63 -19 -132 -64 -119
-77 8 -8 181 27 226 46 43 18 112 35 270 65 41 8 123 24 183 36 59 12 112 18
117 15 19 -12 11 -65 -15 -91 -14 -14 -25 -31 -25 -38 0 -8 -6 -18 -12 -23
-20 -15 -150 -30 -273 -32 -60 0 -157 -5 -215 -11 -58 -5 -145 -12 -193 -14
-85 -5 -88 -4 -82 15 4 11 1 26 -5 34 -18 22 -7 40 46 69 43 24 234 94 260 95
7 1 15 -7 18 -16z m-816 -17 c21 -13 51 -44 67 -70 21 -34 34 -45 47 -41 18 6
78 -20 78 -34 0 -24 -54 -20 -120 9 -38 17 -83 33 -100 36 -29 6 -30 8 -30 65
0 34 4 59 10 59 6 0 27 -11 48 -24z m1078 -200 c-50 -30 -66 -49 -66 -76 0
-20 -8 -35 -24 -46 -54 -34 -66 -140 -34 -273 11 -42 10 -45 -16 -66 -35 -28
-66 -74 -66 -100 0 -11 -7 -33 -15 -49 -8 -15 -15 -29 -15 -31 0 -1 23 -5 51
-8 65 -8 79 -20 79 -69 0 -58 -36 -91 -90 -82 -38 6 -40 5 -40 -20 0 -19 -6
-27 -27 -32 -14 -4 -39 -22 -56 -40 -37 -43 -82 -46 -125 -9 -30 25 -57 101
-48 133 3 10 -8 32 -24 51 -27 31 -30 33 -61 22 -55 -19 -107 -14 -134 14 -28
27 -30 38 -14 84 6 18 8 51 4 76 -5 39 -9 45 -31 45 -13 0 -44 9 -69 21 -43
20 -45 23 -45 63 0 56 31 105 71 113 21 4 37 16 48 36 43 79 90 107 183 107
45 0 46 0 66 -50 23 -56 38 -63 48 -22 13 52 76 99 120 88 18 -5 28 0 46 24
12 16 28 30 35 30 8 0 30 7 50 15 34 14 35 16 19 33 -9 10 -16 21 -16 25 0 7
190 14 204 8 6 -3 2 -9 -8 -15z m-1104 -132 c3 -3 1 -19 -5 -35 -9 -24 -9 -35
4 -57 21 -38 43 -38 90 -2 22 18 43 29 46 26 11 -11 -29 -115 -59 -157 -24
-34 -106 -99 -124 -99 -4 0 -22 11 -40 25 -18 14 -36 25 -41 25 -4 0 -19 9
-32 19 -23 18 -23 20 -11 72 15 64 33 101 72 152 23 29 37 37 62 37 18 0 35
-3 38 -6z m-1876 -79 c5 -60 22 -161 32 -185 26 -64 61 -265 48 -277 -9 -9
-25 7 -41 40 -8 18 -31 49 -49 68 -31 32 -34 40 -34 94 0 33 7 72 14 87 8 15
14 48 14 73 0 38 -4 48 -19 52 -28 7 -34 32 -16 60 22 32 47 26 51 -12z m3276
-90 c-4 -37 -3 -38 26 -32 35 7 52 -7 52 -44 0 -26 21 -54 32 -44 3 3 3 -5 1
-17 -4 -20 5 -28 62 -56 46 -22 65 -37 63 -48 -3 -18 -94 -73 -120 -74 -26 0
-22 -27 7 -46 20 -13 23 -19 14 -30 -6 -8 -20 -14 -31 -14 -12 0 -23 -11 -29
-30 -11 -31 -24 -36 -48 -21 -8 5 -27 3 -47 -5 -18 -8 -56 -14 -85 -14 -45 0
-55 4 -86 35 -34 34 -34 36 -27 91 6 54 6 57 -13 52 -34 -9 -55 10 -48 43 5
22 3 29 -8 29 -16 0 -70 79 -82 119 -11 37 13 94 49 119 56 38 134 25 174 -30
16 -22 41 -23 49 -3 7 20 74 66 88 62 5 -2 8 -21 7 -42z m-3339 -47 c-7 -29
-13 -74 -12 -99 2 -25 -3 -60 -10 -78 -13 -30 -12 -33 26 -72 31 -31 45 -57
61 -112 37 -127 44 -166 38 -202 -7 -33 -9 -35 -46 -35 -22 0 -40 -4 -40 -10
0 -5 -9 -19 -19 -29 -16 -16 -29 -18 -68 -15 -42 5 -51 2 -72 -20 -21 -22 -30
-25 -64 -19 -21 3 -55 6 -75 7 -32 1 -37 6 -64 56 -26 50 -29 62 -25 138 l3
83 -57 60 c-60 63 -168 254 -152 270 34 32 245 93 384 110 51 6 95 12 96 12 1
1 26 3 56 5 l54 3 -14 -53z m1304 -243 c-7 -222 -26 -497 -47 -660 -11 -82
-22 -179 -26 -215 -8 -81 -17 -92 -60 -84 -21 4 -40 2 -49 -6 -8 -7 -21 -10
-29 -7 -7 3 -18 1 -24 -5 -5 -5 -53 -12 -106 -14 -111 -5 -101 -18 -96 121 2
56 7 87 20 105 9 14 29 51 44 83 23 49 30 57 54 57 39 0 133 36 157 61 l20 20
-28 25 c-15 13 -35 24 -43 24 -8 0 -14 2 -14 5 0 11 24 55 30 55 4 0 15 15 25
33 9 17 23 43 31 57 7 14 14 33 14 43 0 31 -31 4 -89 -76 -30 -41 -69 -83 -85
-92 -17 -10 -39 -27 -49 -39 -38 -45 -136 -198 -148 -231 -7 -19 -17 -35 -21
-35 -4 0 -8 -9 -8 -20 0 -11 -13 -48 -29 -82 -16 -35 -32 -80 -35 -100 -4 -21
-10 -38 -15 -38 -4 0 -15 -27 -25 -60 -10 -33 -23 -60 -28 -60 -7 0 -7 -4 0
-13 13 -16 -15 -80 -31 -70 -7 4 -8 -2 -3 -18 4 -13 10 -41 13 -62 5 -34 4
-37 -18 -38 -13 -1 -28 -1 -32 0 -4 1 -34 -6 -65 -15 -82 -24 -337 -24 -382 0
-19 10 -22 22 -26 110 -2 54 -7 102 -9 106 -7 12 14 307 26 370 6 30 20 96 31
145 14 58 22 135 24 219 2 99 7 132 18 145 9 10 16 23 16 29 0 7 9 12 19 12
11 0 23 5 26 10 3 6 13 10 20 10 8 0 38 11 67 24 29 13 69 27 88 31 19 4 62
20 94 36 33 16 69 29 80 29 12 0 35 7 51 16 50 26 172 70 345 124 91 29 192
65 225 80 84 39 87 34 82 -145z m2980 -125 c-2 -79 -4 -85 -24 -88 -16 -2 -33
12 -70 58 -47 60 -49 61 -88 55 -22 -3 -51 -16 -64 -28 l-24 -22 7 40 c9 51
63 105 105 105 16 0 31 -5 33 -10 2 -6 23 -12 48 -13 38 -2 46 1 55 21 10 22
10 22 17 -5 4 -16 6 -66 5 -113z m-861 -307 c-39 -36 -57 -41 -75 -19 -16 19
-44 133 -37 151 8 23 26 18 26 -8 0 -21 23 -43 63 -59 13 -6 17 -4 14 5 -2 6
5 29 17 51 l21 39 3 -64 c3 -62 2 -65 -32 -96z m-637 -79 c44 -9 66 -44 53
-84 -10 -26 -8 -32 14 -49 19 -15 23 -25 18 -45 -3 -15 -10 -29 -15 -31 -4 -3
-6 -18 -3 -33 4 -19 0 -33 -10 -41 -21 -18 -20 -34 4 -49 26 -16 25 -38 -2
-53 -25 -14 -128 -5 -157 13 -15 9 -23 9 -34 0 -17 -14 -47 -6 -47 13 0 23
-13 24 -75 9 -33 -7 -74 -14 -91 -14 -40 0 -81 32 -89 69 -7 35 9 104 31 125
13 14 11 17 -21 31 -43 17 -42 34 4 50 22 7 37 21 46 42 10 23 21 32 46 35 31
5 100 -10 115 -25 4 -4 27 -7 52 -7 32 0 52 7 74 25 32 27 39 28 87 19z
m-3505 -37 l20 -27 -23 -21 c-13 -12 -29 -37 -37 -55 -8 -18 -18 -35 -23 -38
-5 -4 -13 -21 -16 -39 -4 -17 -12 -35 -17 -38 -5 -3 -10 -71 -10 -150 -1 -127
1 -151 21 -204 12 -33 26 -62 29 -65 4 -3 16 -21 26 -40 32 -56 178 -180 213
-180 6 0 18 -6 26 -14 8 -8 30 -19 48 -24 33 -9 34 -9 9 -16 -57 -16 -156 38
-248 134 -71 75 -77 84 -115 164 l-37 77 0 137 c0 91 4 145 13 162 7 14 14 38
15 55 2 33 26 105 48 147 8 14 14 36 14 48 0 27 18 22 44 -13z m4456 -182 c14
-7 34 -22 44 -34 22 -25 106 -31 106 -8 0 8 11 24 25 37 24 22 26 23 44 5 15
-13 27 -15 48 -10 65 18 143 21 170 7 12 -7 23 -24 25 -39 3 -25 7 -28 43 -28
22 0 46 -4 53 -8 17 -11 15 -59 -3 -83 -17 -23 -19 -56 -4 -71 9 -9 6 -20 -11
-43 -12 -17 -21 -32 -19 -34 104 -73 109 -78 109 -108 0 -72 -97 -136 -158
-104 -23 12 -31 12 -52 0 -14 -7 -32 -13 -41 -14 -9 0 -20 -11 -23 -24 -8 -31
-35 -40 -101 -31 -56 7 -74 20 -113 86 -12 19 -33 41 -47 49 -22 12 -27 11
-38 -4 -9 -13 -33 -19 -87 -23 -70 -5 -77 -4 -102 20 -43 40 -37 73 20 124 38
35 44 44 32 52 -97 61 -120 95 -120 183 0 45 5 62 23 82 38 43 115 52 177 21z
m-2410 -209 c0 -8 -11 -47 -25 -88 -14 -40 -25 -90 -25 -110 0 -20 -7 -44 -16
-52 -18 -19 -10 -36 17 -36 13 0 24 -10 30 -30 8 -23 17 -30 37 -31 15 0 36
-4 47 -9 19 -7 18 -8 -5 -13 -67 -15 -154 -26 -242 -33 -78 -5 -102 -3 -129
10 -18 9 -37 16 -42 16 -18 0 -77 50 -77 66 0 7 -4 14 -8 14 -12 0 -54 99 -59
140 l-5 35 104 0 c166 0 328 49 356 108 14 28 42 37 42 13z m2419 -342 c12
-15 21 -33 21 -40 0 -8 5 -14 11 -14 5 0 8 -4 4 -9 -3 -5 -1 -12 5 -16 5 -3
10 -16 10 -29 0 -12 11 -33 25 -46 31 -29 31 -26 -1 39 -14 30 -22 57 -17 62
4 4 35 -10 68 -32 33 -21 65 -39 72 -39 38 0 -7 -52 -73 -85 -58 -28 -104 -33
-104 -10 0 8 -13 35 -29 60 -19 31 -31 66 -36 105 -10 84 6 102 44 54z m-91
-17 c7 -18 12 -48 12 -65 0 -45 17 -76 51 -91 20 -9 29 -20 29 -37 0 -26 -5
-28 -64 -24 -43 2 -89 26 -80 41 3 5 -2 6 -10 3 -11 -4 -16 0 -16 15 0 22 19
30 21 9 3 -23 17 86 18 135 1 56 21 64 39 14z m-3597 -41 c-13 -16 8 -38 54
-57 55 -22 207 -40 285 -34 115 9 212 26 248 42 18 9 35 13 38 11 3 -3 -9 -58
-26 -123 -16 -64 -30 -125 -30 -135 0 -12 -13 -21 -45 -30 -25 -7 -45 -16 -45
-21 0 -14 40 -21 82 -14 l41 7 -6 -30 c-5 -24 -2 -31 13 -35 23 -6 45 -49 37
-71 -8 -20 -70 -36 -143 -36 -88 0 -232 27 -271 51 -89 55 -213 258 -270 440
-5 17 40 75 45 58 2 -5 -1 -16 -7 -23z"/>
<path d="M1020 3997 c-117 -41 -200 -122 -221 -216 -8 -35 14 -146 32 -165 5
-6 9 -17 9 -25 0 -24 62 -97 110 -130 31 -21 61 -32 97 -35 55 -5 93 1 93 14
0 9 -43 26 -90 36 -71 14 -122 58 -161 139 -58 121 -30 231 75 301 58 38 100
49 152 40 55 -11 84 -48 84 -108 0 -52 17 -71 45 -48 38 31 3 135 -59 178 -40
27 -117 36 -166 19z"/>
<path d="M2060 3929 c-50 -35 -120 -123 -120 -151 0 -30 24 -20 45 18 22 42
113 126 129 121 10 -4 12 -18 15 -107 l2 -35 19 24 c27 32 28 121 2 144 -26
24 -42 21 -92 -14z"/>
<path d="M964 3823 c-40 -43 -58 -97 -43 -124 5 -11 14 -19 18 -19 10 0 21 35
21 71 0 64 89 91 120 37 14 -26 13 -29 -23 -66 -42 -43 -47 -73 -19 -121 33
-58 68 -42 38 18 -24 45 -20 60 20 77 34 14 36 17 29 52 -8 41 -37 87 -65 102
-34 18 -62 11 -96 -27z"/>
<path d="M1596 3600 c-54 -27 -76 -49 -76 -77 0 -31 19 -29 46 4 l21 27 69
-70 c66 -66 87 -81 214 -144 111 -56 243 -79 257 -45 8 22 4 24 -68 31 -78 8
-125 22 -204 64 -113 60 -147 84 -210 145 l-30 29 45 9 c54 11 56 12 40 32
-17 20 -57 18 -104 -5z"/>
<path d="M1685 2779 c6 -35 34 -101 76 -181 5 -10 9 -24 9 -32 0 -8 3 -16 8
-18 13 -6 42 -78 42 -105 0 -14 7 -31 15 -37 8 -6 17 -24 19 -41 2 -16 13 -48
25 -70 12 -21 21 -45 21 -52 0 -12 37 -43 52 -43 32 0 -35 199 -148 440 -14
30 -33 71 -42 90 -26 55 -52 90 -69 90 -12 0 -13 -8 -8 -41z"/>
<path d="M1947 1933 c-3 -5 -5 -40 -6 -79 0 -39 -5 -95 -11 -124 -11 -57 -13
-143 -4 -152 3 -3 13 -4 23 -1 14 4 20 23 31 96 6 51 14 107 17 125 3 18 2 57
-2 87 -5 45 -10 55 -25 55 -10 0 -21 -3 -23 -7z"/>
<path d="M3620 3365 c-30 -24 -61 -44 -67 -45 -16 0 -17 -26 -1 -36 6 -4 20 4
32 19 23 28 83 72 112 81 26 8 94 -17 111 -40 8 -11 11 -29 8 -41 -6 -27 -63
-113 -84 -130 -14 -10 -14 -13 1 -30 23 -26 32 -67 18 -92 -13 -26 -65 -28
-98 -5 -30 21 -52 11 -52 -21 0 -22 -4 -26 -22 -23 -16 2 -26 13 -33 36 l-10
34 -85 -8 c-117 -11 -132 -9 -152 16 -30 37 -25 59 34 142 15 20 16 29 6 61
-11 35 -10 39 13 55 26 18 79 33 91 26 5 -3 8 -16 8 -30 0 -14 7 -27 15 -30
26 -10 33 5 20 43 -11 33 -17 38 -49 41 -27 2 -47 -4 -81 -28 -41 -28 -45 -35
-45 -71 0 -22 -13 -68 -30 -106 -36 -79 -36 -84 -6 -120 24 -27 26 -28 128
-28 l103 1 20 -30 c27 -41 51 -44 86 -10 27 26 30 26 72 14 85 -23 119 13 98
103 -13 52 -13 53 19 100 33 50 46 100 36 140 -7 31 -61 57 -118 57 -36 0 -52
-7 -98 -45z"/>
<path d="M5126 2979 c4 -7 7 -28 8 -48 1 -31 5 -36 27 -39 35 -4 61 -34 57
-64 -2 -16 -17 -30 -46 -45 -50 -25 -72 -42 -72 -54 0 -14 45 -11 87 5 22 9
84 16 149 18 l112 3 22 -42 c21 -39 26 -43 60 -43 23 0 43 7 52 18 26 29 70
143 64 167 -14 55 -73 94 -102 66 -5 -5 -65 -14 -133 -19 l-124 -10 -65 49
c-59 45 -114 66 -96 38z"/>
</g>
</svg>
