<?xml version="1.0" standalone="no"?>
<!DOCTYPE svg PUBLIC "-//W3C//DTD SVG 20010904//EN"
 "http://www.w3.org/TR/2001/REC-SVG-20010904/DTD/svg10.dtd">
<svg version="1.0" xmlns="http://www.w3.org/2000/svg"
 width="417.000000pt" height="315.000000pt" viewBox="0 0 417.000000 315.000000"
 preserveAspectRatio="xMidYMid meet">
<metadata>
Created by potrace 1.15, written by Peter Selinger 2001-2017
</metadata>
<g transform="translate(0.000000,315.000000) scale(0.100000,-0.100000)"
fill="#000000" stroke="none">
<path d="M3317 3130 c-181 -53 -329 -176 -412 -341 -50 -98 -65 -165 -74 -319
-8 -150 -28 -212 -89 -281 l-31 -35 26 -54 c37 -77 42 -161 13 -228 -37 -85
-127 -152 -227 -168 l-40 -6 -6 -55 c-3 -31 -16 -72 -31 -97 -47 -80 -152
-155 -218 -156 -27 0 -28 -2 -28 -57 -1 -106 -65 -193 -175 -237 l-58 -24 -1
-64 c-4 -184 -211 -312 -373 -229 -21 10 -60 42 -87 71 l-49 52 -129 -128
c-144 -144 -172 -183 -187 -266 -26 -147 44 -283 179 -347 44 -21 70 -26 130
-26 132 0 146 9 388 249 118 116 308 309 424 428 l210 217 -21 30 c-108 152
-36 373 139 425 25 7 133 28 240 47 l195 33 98 94 c140 133 184 152 370 162
173 10 269 37 378 108 137 89 244 239 284 397 26 101 13 350 -19 383 -4 3
-102 -89 -219 -206 -168 -168 -218 -212 -238 -212 -43 0 -160 65 -221 123 -70
67 -131 160 -147 223 l-12 48 217 217 217 217 -39 12 c-21 7 -100 14 -174 16
-113 3 -146 0 -203 -16z m-1787 -2556 c96 -57 67 -215 -41 -224 -53 -5 -72 1
-105 34 -28 28 -34 42 -34 75 0 79 47 130 118 131 19 0 46 -7 62 -16z"/>
<path d="M862 2837 c-17 -18 -22 -36 -22 -78 0 -50 3 -57 30 -77 26 -20 41
-22 152 -22 l123 0 -3 -55 -4 -55 -199 0 c-153 0 -206 -3 -227 -14 -36 -19
-83 -70 -121 -131 l-31 -49 -79 3 -78 3 -67 -99 -66 -98 0 -103 c0 -102 0
-103 -22 -100 -23 3 -23 3 -26 223 -2 160 -6 221 -15 227 -19 12 -76 9 -105
-6 -31 -16 -74 -61 -91 -93 -7 -14 -11 -104 -11 -260 l0 -239 30 -29 30 -29 0
-223 0 -223 43 -45 c46 -48 66 -54 91 -29 14 13 16 47 16 220 l0 204 35 0 35
0 0 -227 1 -228 66 -70 67 -69 193 3 193 3 144 -138 c80 -76 153 -142 162
-147 13 -7 32 7 95 69 l78 78 -112 119 c-62 66 -132 135 -157 153 l-45 34
-221 0 c-196 0 -224 2 -243 17 -20 18 -21 29 -27 448 l-7 431 25 16 c14 9 66
24 114 33 49 9 107 25 130 35 42 18 86 66 99 108 l6 22 592 0 592 1 27 44 c15
25 48 59 73 77 25 17 45 35 45 39 0 4 -24 17 -54 29 -52 21 -62 21 -260 14
l-206 -7 0 46 c0 78 -2 77 130 77 65 0 125 3 134 6 13 5 16 22 16 83 0 47 -5
82 -12 89 -9 9 -139 12 -523 12 l-512 0 -21 -23z"/>
<path d="M2255 2386 c-66 -28 -105 -106 -90 -176 11 -48 216 -352 253 -372 42
-25 128 -24 169 2 57 34 86 121 60 182 -8 19 -61 104 -117 187 -87 131 -107
155 -143 172 -49 22 -90 23 -132 5z"/>
<path d="M1960 2078 c-59 -30 -95 -97 -85 -157 7 -43 170 -298 230 -359 35
-36 86 -50 148 -38 69 13 127 106 112 178 -4 16 -56 104 -116 194 -96 144
-115 168 -152 184 -55 25 -83 25 -137 -2z"/>
<path d="M1705 1756 c-66 -29 -105 -107 -91 -178 9 -40 201 -324 238 -351 14
-11 48 -22 75 -24 94 -8 163 56 163 153 0 50 -5 60 -106 213 -91 137 -112 163
-148 181 -49 23 -88 25 -131 6z"/>
<path d="M2942 1430 c-203 -37 -335 -66 -355 -77 -85 -49 -89 -187 -9 -255 43
-36 85 -40 251 -24 99 9 155 10 180 4 43 -12 89 -52 107 -94 7 -18 27 -148 44
-290 16 -141 32 -259 34 -261 5 -6 252 171 295 211 72 66 73 93 31 466 -27
237 -33 269 -55 302 -33 49 -90 78 -152 77 -26 0 -193 -27 -371 -59z"/>
<path d="M1464 1371 c-42 -25 -68 -82 -62 -136 4 -31 27 -74 95 -176 50 -74
102 -144 116 -157 27 -25 90 -39 131 -28 65 16 114 94 101 162 -8 46 -188 316
-225 337 -38 23 -117 22 -156 -2z"/>
<path d="M2790 953 c-105 -10 -191 -28 -242 -50 -48 -21 -90 -59 -287 -263
-127 -131 -231 -242 -231 -247 0 -13 54 -46 188 -117 152 -79 220 -131 280
-213 26 -35 50 -63 55 -63 4 0 122 77 262 170 230 154 255 173 255 198 0 66
-59 552 -69 571 -11 19 -20 21 -94 19 -45 0 -98 -3 -117 -5z"/>
</g>
</svg>
